<svg width="68" height="68" viewBox="0 0 68 68" fill="none" xmlns="http://www.w3.org/2000/svg">
<path d="M11.6505 17.6344C14.9347 13.9057 18.3463 10.9452 21.7364 8.64872H6.07273V25.8369C7.71197 22.6739 9.67931 19.8724 11.6505 17.6344Z" fill="#1076A5"/>
<path d="M52.8262 48.3337L52.0404 38.517C50.6743 24.8287 43.9044 32.5172 41.8251 50.1186C36.3245 56.3655 26.1091 55.4732 21.3943 50.1186L46.5398 21.561C52.5844 14.6962 55.9451 10.8245 51.2304 5.46994C47.0991 0.778007 34.5719 -0.0460219 21.7364 8.64872C18.3463 10.9452 14.9347 13.9057 11.6505 17.6344C9.67931 19.8724 7.71197 22.6739 6.07273 25.8369C0.743958 36.1192 -1.11759 50.2224 11.6263 61.2121C19.8278 68.2847 35.5387 67.967 46.5398 57.2579C62.1832 60.9649 72.3381 49.432 61.47 49.2262L52.8262 48.3337Z" fill="#1076A5"/>
<path d="M36.1191 9.0669L38.8271 12.1423M18.8974 31.3086H26.5567V22.61M21.7364 8.64872C18.3463 10.9452 14.9347 13.9057 11.6505 17.6344C9.67931 19.8724 7.71197 22.6739 6.07273 25.8369M21.7364 8.64872C34.5719 -0.0460219 47.0991 0.778007 51.2304 5.46994C55.9451 10.8245 52.5844 14.6962 46.5398 21.561L21.3943 50.1186C26.1091 55.4732 36.3245 56.3655 41.8251 50.1186C43.9044 32.5172 50.6743 24.8287 52.0404 38.517L52.8262 48.3337L61.47 49.2262C72.3381 49.432 62.1832 60.9649 46.5398 57.2579C35.5387 67.967 19.8278 68.2847 11.6263 61.2121C-1.11759 50.2224 0.743958 36.1192 6.07273 25.8369M21.7364 8.64872H6.07273V25.8369" stroke="#27272E" stroke-width="3.2" stroke-linecap="round"/>
</svg>
