<svg width="64" height="64" viewBox="0 0 64 64" fill="none" xmlns="http://www.w3.org/2000/svg">
<path fill-rule="evenodd" clip-rule="evenodd" d="M50.0404 36.517L50.8262 46.3337L59.47 47.2262C70.3381 47.432 60.1832 58.9649 44.5398 55.2579C33.5387 65.967 17.8278 66.2847 9.62634 59.2121C-3.11759 48.2224 -1.25604 34.1192 4.07273 23.8369V6.64872H19.7364C32.5719 -2.04602 45.0991 -1.22199 49.2304 3.46994C53.9451 8.82449 50.5844 12.6962 44.5398 19.561L19.3943 48.1186C24.1091 53.4732 34.3245 54.3655 39.8251 48.1186C41.9044 30.5172 48.6743 22.8287 50.0404 36.517ZM35.3199 6.00953C34.736 5.34633 33.7249 5.2821 33.0617 5.86607C32.3985 6.45004 32.3343 7.46106 32.9183 8.12426L35.6263 11.1997C36.2103 11.8629 37.2213 11.9271 37.8845 11.3432C38.5477 10.7592 38.6119 9.74816 38.0279 9.08496L35.3199 6.00953ZM26.1567 20.61C26.1567 19.7263 25.4403 19.01 24.5567 19.01C23.673 19.01 22.9567 19.7263 22.9567 20.61V27.7086H16.8974C16.0137 27.7086 15.2974 28.425 15.2974 29.3086C15.2974 30.1923 16.0137 30.9086 16.8974 30.9086H26.1567V20.61Z" fill="#000000"/>
</svg>
